<svg xmlns="http://www.w3.org/2000/svg" width="31.745" height="31.745" viewBox="0 0 31.745 31.745">
  <g id="Back" transform="translate(-855 -925.98)">
    <rect id="Rectangle_3" data-name="Rectangle 3" width="31.745" height="31.745" transform="translate(855 925.98)" fill="none"/>
    <g id="Group_2" data-name="Group 2" transform="translate(860.291 928.626)">
      <path id="Path_2" data-name="Path 2" d="M6.693,2a2.605,2.605,0,0,1,2.6,2.645v8.231L20.749,3.1A2.679,2.679,0,0,1,25.163,5.1V25.35a2.679,2.679,0,0,1-4.414,2.008L9.291,17.577v8.231a2.605,2.605,0,0,1-2.6,2.645A2.687,2.687,0,0,1,4,25.809V4.645A2.687,2.687,0,0,1,6.693,2Z" transform="translate(-4 -2)" fill="#404040"/>
    </g>
  </g>
</svg>
