<svg id="Group_13" data-name="Group 13" xmlns="http://www.w3.org/2000/svg" width="21.81" height="21.834" viewBox="0 0 21.81 21.834">
  <path id="Path_16" data-name="Path 16" d="M21.563,19.651a8.742,8.742,0,0,0-9.729-1.53L9.223,19.354a6.9,6.9,0,0,1-7.675-1.182.91.91,0,1,0-1.277,1.3,8.517,8.517,0,0,0,5.971,2.365A8.8,8.8,0,0,0,10,21l2.611-1.234a6.894,6.894,0,0,1,7.675,1.182.911.911,0,0,0,1.277-1.3ZM6.169,18.2h.162a5.234,5.234,0,0,0,1.857-.381V13.646a2.729,2.729,0,1,1,5.459,0v2.012a10.371,10.371,0,0,1,6.368.776V8.227a1.654,1.654,0,0,0-.607-1.28L10.917,0,2.426,6.947a1.654,1.654,0,0,0-.607,1.28v8.029a2.731,2.731,0,0,1,1.006.62A4.846,4.846,0,0,0,6.169,18.2Z" transform="translate(0)" fill="#404040"/>
</svg>
