<svg xmlns="http://www.w3.org/2000/svg" width="33.831" height="29.602" viewBox="0 0 33.831 29.602">
  <path id="window-close" d="M30.659,32H3.172A3.172,3.172,0,0,0,0,35.172V58.43A3.172,3.172,0,0,0,3.172,61.6H30.659a3.172,3.172,0,0,0,3.172-3.172V35.172A3.172,3.172,0,0,0,30.659,32Zm0,26.034a.4.4,0,0,1-.4.4H3.568a.4.4,0,0,1-.4-.4V35.568a.4.4,0,0,1,.4-.4H30.263a.4.4,0,0,1,.4.4Zm-7.1-15.29L19.5,46.8l4.057,4.057a.79.79,0,0,1,0,1.11l-1.473,1.474a.79.79,0,0,1-1.11,0l-4.057-4.057-4.057,4.057a.79.79,0,0,1-1.11,0l-1.473-1.473a.79.79,0,0,1,0-1.11L14.332,46.8l-4.057-4.057a.79.79,0,0,1,0-1.11l1.473-1.474a.79.79,0,0,1,1.11,0l4.057,4.057,4.057-4.057a.79.79,0,0,1,1.11,0l1.473,1.474a.778.778,0,0,1,0,1.11Z" transform="translate(0 -32)" fill="#fff"/>
</svg>
